<svg width="19" height="19" viewBox="0 0 19 19" fill="none" xmlns="http://www.w3.org/2000/svg">
<path d="M18.9999 9.49838C18.9999 11.568 18.3957 13.4291 17.1873 15.0819C15.9789 16.7346 14.4185 17.8786 12.5062 18.5139C12.2835 18.5551 12.1205 18.5261 12.017 18.4269C11.9136 18.3277 11.8619 18.2042 11.8619 18.0564V15.4475C11.8619 14.6476 11.6477 14.0624 11.2192 13.6919C11.6888 13.6423 12.1115 13.5679 12.4872 13.4687C12.8629 13.3695 13.2502 13.2086 13.6492 12.9859C14.0481 12.7632 14.3821 12.4888 14.6513 12.1627C14.9204 11.8366 15.1388 11.4039 15.3066 10.8646C15.4745 10.3253 15.5589 9.70471 15.5599 9.00288C15.5599 8.00555 15.2344 7.1565 14.5832 6.45574C14.8882 5.70536 14.8555 4.86423 14.485 3.93233C14.2539 3.85845 13.9199 3.90384 13.483 4.06847C13.046 4.23311 12.6666 4.41464 12.3447 4.61305L11.8746 4.90908C11.1073 4.69484 10.3158 4.58772 9.49997 4.58772C8.68416 4.58772 7.89263 4.69484 7.12537 4.90908C6.99345 4.81832 6.81826 4.70698 6.59979 4.57506C6.38133 4.44313 6.03728 4.2843 5.56764 4.09855C5.09799 3.91281 4.74339 3.8574 4.50382 3.93233C4.14077 4.86423 4.11174 5.70536 4.41675 6.45574C3.76558 7.1565 3.44 8.00555 3.44 9.00288C3.44 9.70365 3.52443 10.3221 3.69329 10.8582C3.86215 11.3944 4.0785 11.8271 4.34234 12.1563C4.60619 12.4856 4.9381 12.7616 5.33809 12.9843C5.73808 13.207 6.1254 13.3679 6.50006 13.4671C6.87472 13.5663 7.2974 13.6407 7.7681 13.6903C7.43882 13.9869 7.23671 14.4117 7.16178 14.9647C6.9887 15.047 6.80295 15.1088 6.60454 15.1499C6.40613 15.1911 6.17131 15.2117 5.90008 15.2117C5.62885 15.2117 5.35867 15.123 5.08955 14.9457C4.82043 14.7684 4.59141 14.5109 4.4025 14.1732C4.24631 13.9093 4.04631 13.6951 3.80252 13.5304C3.55873 13.3658 3.35451 13.2671 3.18987 13.2344L2.94292 13.198C2.76983 13.198 2.65005 13.2165 2.58356 13.2534C2.51707 13.2904 2.49649 13.3378 2.52182 13.3959C2.54715 13.4539 2.58409 13.5115 2.63264 13.5684C2.68118 13.6254 2.73501 13.675 2.79411 13.7172L2.88118 13.779C3.0627 13.8613 3.24212 14.018 3.41942 14.2492C3.59672 14.4803 3.72653 14.6903 3.80885 14.8792L3.93233 15.1642C4.03998 15.4776 4.2215 15.7309 4.47691 15.924C4.73231 16.1172 5.00829 16.2407 5.30485 16.2945C5.60141 16.3483 5.88794 16.3773 6.16445 16.3815C6.44096 16.3858 6.66998 16.3715 6.8515 16.3388L7.13645 16.2897C7.13645 16.6032 7.13856 16.9699 7.14278 17.39C7.14701 17.81 7.14912 18.0327 7.14912 18.058C7.14912 18.2068 7.09529 18.3303 6.98764 18.4284C6.88 18.5266 6.71536 18.5556 6.49373 18.5155C4.58139 17.8802 3.02101 16.7362 1.81261 15.0834C0.604203 13.4307 -1.4429e-08 11.5696 0 9.49997C0 7.77654 0.424789 6.18714 1.27437 4.73178C2.12394 3.27641 3.27642 2.12394 4.73178 1.27437C6.18714 0.424789 7.77654 0 9.49997 0C11.2234 0 12.8128 0.424789 14.2682 1.27437C15.7235 2.12394 16.876 3.27641 17.7256 4.73178C18.5751 6.18714 18.9999 7.77654 18.9999 9.49997V9.49838Z" fill="white"/>
</svg>
