<svg width="83" height="56" viewBox="0 0 83 56" fill="none" xmlns="http://www.w3.org/2000/svg">
<g clip-path="url(#clip0_224_1438)">
<path d="M27.3951 16.9033C23.8854 18.9112 21.4988 21.6635 20.6162 24.721C19.7337 27.7784 20.4061 30.9646 22.5261 33.7708C22.4551 33.8398 22.5834 33.696 22.5261 33.7708C19.9709 40.4652 28.2248 46.7601 38.5168 46.3127L38.5162 46.2989L38.5496 46.3395C41.81 46.1763 44.8815 45.2972 47.2927 43.8372L55.8076 38.7282L55.902 38.7323L64.4481 33.6046C75.5346 27.06 66.985 14.6725 52.2518 15.9354C48.8292 14.4289 44.8444 13.619 40.7863 13.605L40.7799 13.6958L40.7149 13.6336C35.8125 13.6273 31.0951 14.7853 27.3951 16.9033ZM33.0194 21.9171C35.0071 20.6435 37.7156 19.8439 40.4809 19.7668C42.2065 19.7374 43.9267 19.9687 45.5149 20.4437C47.1031 20.9188 48.5187 21.6254 49.6575 22.5117L50.4338 23.0939C56.1394 19.5289 64.1305 25.5222 58.2166 28.9309L49.6687 34.0596L49.6691 34.0777L49.6091 34.0327L41.0596 39.1624C40.4539 39.5258 39.7377 39.7969 38.9586 39.9577C38.0693 40.1408 37.125 40.1744 36.2036 40.0576C35.2821 39.9407 34.4126 39.6759 33.6696 39.2858C32.9266 38.8957 32.3322 38.392 31.9375 37.8178C31.5427 37.2436 31.3594 36.6161 31.4031 35.989C31.4469 35.362 31.7164 34.7541 32.1887 34.2175C32.6609 33.681 33.3218 33.2317 34.1146 32.9082C34.9074 32.5847 35.8085 32.3967 36.7406 32.3603C37.6728 32.3238 38.6082 32.44 39.4667 32.699L39.9121 26.3377C36.3081 25.8596 32.5917 26.2798 29.4616 27.5195C29.4763 27.4905 29.4885 27.4508 29.516 27.4404C29.5168 26.4021 29.8278 25.3781 30.4304 24.4292C31.033 23.4804 31.915 22.6258 33.0242 21.9162L33.0194 21.9171Z" fill="white"/>
</g>
<defs>
<clipPath id="clip0_224_1438">
<rect width="50" height="50" fill="white" transform="matrix(0.858789 -0.515273 0.801209 0.600907 0 25.7637)"/>
</clipPath>
</defs>
</svg>
