<svg width="83" height="56" viewBox="0 0 83 56" fill="none" xmlns="http://www.w3.org/2000/svg">
<g clip-path="url(#clip0_224_1422)">
<mask id="mask0_224_1422" style="mask-type:luminance" maskUnits="userSpaceOnUse" x="19" y="12" width="45" height="31">
<path d="M56.7223 39.3218C65.7339 33.9149 66.2237 24.42 57.8163 18.1144C49.4089 11.8089 35.288 11.0804 26.2764 16.4874C17.2647 21.8944 16.7749 31.3892 25.1823 37.6948C33.5898 44.0004 47.7107 44.7288 56.7223 39.3218Z" fill="white"/>
</mask>
<g mask="url(#mask0_224_1422)">
<path d="M8.24486 26.1894L42.6524 5.54485L74.753 29.6203L40.3455 50.2648L8.24486 26.1894Z" fill="white"/>
</g>
<mask id="mask1_224_1422" style="mask-type:luminance" maskUnits="userSpaceOnUse" x="25" y="17" width="32" height="21">
<path d="M44.4896 23.4431L45.9571 18.3184C46.0535 17.8472 46.4315 17.7165 46.9974 18.1409L56.5846 25.3313C57.22 25.8078 56.7641 25.9831 56.2061 26.0051L48.4509 26.414L44.4896 23.4431ZM26.0923 30.7153L33.2405 36.0764C34.0207 36.6559 35.0978 37.0123 36.2349 37.0673C37.372 37.1222 38.4761 36.8713 39.3043 36.3696L50.4779 29.6654C50.6295 29.575 50.7192 29.4463 50.7274 29.3075C50.7355 29.1686 50.6614 29.0309 50.5213 28.9246L43.3731 23.5634C42.5929 22.9839 41.5158 22.6275 40.3787 22.5726C39.2416 22.5176 38.1375 22.7685 37.3092 23.2703L26.1357 29.9744C25.9841 30.0648 25.8944 30.1935 25.8862 30.3324C25.8781 30.4712 25.9522 30.6089 26.0923 30.7153Z" fill="white"/>
</mask>
<g mask="url(#mask1_224_1422)">
<path d="M23.8485 30.2298L46.5504 16.6086L58.7949 25.7921L36.0931 39.4132L23.8485 30.2298Z" fill="#0A0B16"/>
</g>
</g>
<defs>
<clipPath id="clip0_224_1422">
<rect width="50" height="50" fill="white" transform="matrix(0.858789 -0.515273 0.801209 0.600907 0 25.7637)"/>
</clipPath>
</defs>
</svg>
