<svg width="142" height="97" viewBox="0 0 142 97" fill="none" xmlns="http://www.w3.org/2000/svg">
<path d="M1.11458 44.7464C0.2523 44.1079 0.312519 42.7989 1.22978 42.2423L3.67339 40.7595L3.41231 40.3292L8.29953 37.3635L8.56061 37.7937L13.4478 34.828L13.1868 34.3978L18.074 31.4321L18.3351 31.8623L23.2223 28.8966L22.9612 28.4664L27.8484 25.5007L28.1095 25.9309L32.9967 22.9652L32.7356 22.5349L37.6229 19.5692L37.8839 19.9995L42.7712 17.0337L42.5101 16.6035L47.3973 13.6378L47.6584 14.068L52.5456 11.1023L52.2845 10.6721L57.1717 7.70637L57.4328 8.1366L62.32 5.17089L62.059 4.74065L66.9462 1.77494L67.2073 2.20517L69.6509 0.722318C70.1793 0.40166 70.8498 0.435481 71.3433 0.807684L73.8249 2.67948L74.1279 2.2777L79.0912 6.02128L78.7881 6.42306L83.7514 10.1666L84.0544 9.76486L89.0177 13.5085L88.7146 13.9102L93.6779 17.6538L93.9809 17.252L98.9441 20.9956L98.6411 21.3974L103.604 25.141L103.907 24.7392L108.871 28.4828L108.568 28.8846L113.531 32.6281L113.834 32.2264L118.797 35.97L118.494 36.3717L123.457 40.1153L123.76 39.7135L128.724 43.4571L128.421 43.8589L133.384 47.6025L133.687 47.2007L138.65 50.9443L138.347 51.3461L140.829 53.2179C141.686 53.8645 141.613 55.1742 140.69 55.7219L138.246 57.1706L138.503 57.6035L133.616 60.5009L133.359 60.068L128.472 62.9654L128.729 63.3983L123.842 66.2957L123.585 65.8628L118.698 68.7602L118.955 69.1931L114.068 72.0905L113.811 71.6576L108.924 74.5551L109.181 74.9879L104.294 77.8854L104.037 77.4525L99.1499 80.3499L99.4066 80.7828L94.5196 83.6802L94.2629 83.2473L89.3759 86.1447L89.6326 86.5776L84.7456 89.475L84.4889 89.0421L79.6019 91.9395L79.8586 92.3724L74.9715 95.2698L74.7149 94.8369L72.2714 96.2856C71.7488 96.5955 71.0913 96.5619 70.603 96.2003L68.1213 94.3627L67.8218 94.7671L62.8583 91.0918L63.1578 90.6874L58.1943 87.0121L57.8949 87.4166L52.9314 83.7413L53.2309 83.3368L48.2674 79.6615L47.9679 80.066L43.0045 76.3907L43.304 75.9863L38.3405 72.311L38.041 72.7154L33.0776 69.0401L33.3771 68.6357L28.4136 64.9604L28.1141 65.3649L23.1507 61.6896L23.4501 61.2851L18.4867 57.6098L18.1872 58.0143L13.2237 54.339L13.5232 53.9346L8.55976 50.2593L8.26029 50.6637L3.29683 46.9884L3.59631 46.584L1.11458 44.7464Z" stroke="#32427E" stroke-dasharray="6 6"/>
<path d="M62.6654 41.9706L77.0345 52.7473" stroke="#32427E" stroke-linecap="round" stroke-linejoin="round"/>
<path d="M77.5507 42.7384L62.149 51.9795" stroke="#32427E" stroke-linecap="round" stroke-linejoin="round"/>
</svg>
