<svg width="18" height="18" viewBox="0 0 18 18" fill="none" xmlns="http://www.w3.org/2000/svg">
<g clip-path="url(#clip0_222_192)">
<path d="M7.36878 7.55118C7.11801 7.57181 6.88417 7.686 6.7137 7.87107C6.54323 8.05614 6.4486 8.29855 6.4486 8.55017C6.4486 8.80178 6.54323 9.0442 6.7137 9.22927C6.88417 9.41434 7.11801 9.52852 7.36878 9.54915C7.49498 9.54453 7.61901 9.51496 7.73371 9.46214C7.84842 9.40932 7.95152 9.33431 8.03708 9.24143C8.12264 9.14855 8.18895 9.03965 8.23219 8.921C8.27544 8.80235 8.29475 8.67632 8.28902 8.55017C8.29521 8.42391 8.27621 8.29768 8.23314 8.17884C8.19006 8.05999 8.12378 7.95091 8.03813 7.85794C7.95249 7.76496 7.8492 7.68996 7.73428 7.63729C7.61937 7.58463 7.49512 7.55536 7.36878 7.55118ZM10.6537 7.55118C10.4527 7.53465 10.2513 7.57918 10.0759 7.67895C9.90057 7.77872 9.75941 7.92908 9.67089 8.11038C9.58237 8.29167 9.55062 8.49546 9.57979 8.69509C9.60895 8.89472 9.69769 9.08091 9.83438 9.2293C9.97107 9.37768 10.1494 9.48137 10.3459 9.5268C10.5425 9.57222 10.7482 9.55727 10.9361 9.4839C11.1241 9.41053 11.2855 9.28216 11.3993 9.11557C11.5131 8.94897 11.574 8.75192 11.574 8.55017C11.5797 8.4242 11.5605 8.29834 11.5174 8.17984C11.4743 8.06133 11.4082 7.95253 11.3228 7.85968C11.2375 7.76683 11.1347 7.69177 11.0202 7.63882C10.9058 7.58588 10.782 7.55609 10.656 7.55118H10.6537Z" fill="white"/>
<path d="M15.0299 0H2.97009C2.72702 0.000589784 2.48645 0.049087 2.26214 0.142718C2.03783 0.23635 1.83418 0.373279 1.66283 0.545675C1.49148 0.718071 1.35579 0.922554 1.26352 1.14743C1.17125 1.3723 1.12422 1.61316 1.12511 1.85623V14.0218C1.12422 14.2649 1.17125 14.5058 1.26352 14.7306C1.35579 14.9555 1.49148 15.16 1.66283 15.3324C1.83418 15.5048 2.03783 15.6417 2.26214 15.7353C2.48645 15.829 2.72702 15.8775 2.97009 15.8781H13.176L12.699 14.2131L13.851 15.2818L14.9399 16.2898L16.8749 17.9998V1.85623C16.8758 1.61316 16.8288 1.3723 16.7365 1.14743C16.6442 0.922554 16.5085 0.718071 16.3372 0.545675C16.1658 0.373279 15.9622 0.23635 15.7379 0.142718C15.5136 0.049087 15.273 0.000589784 15.0299 0V0ZM11.556 11.7561C11.556 11.7561 11.232 11.3691 10.962 11.0249C11.6148 10.8723 12.1927 10.4937 12.5932 9.95613C12.2694 10.1716 11.9222 10.3498 11.5582 10.4871C11.1396 10.6658 10.7017 10.7957 10.2532 10.8741C9.48245 11.016 8.69195 11.013 7.92228 10.8651C7.47041 10.7767 7.02757 10.6472 6.59929 10.4781C6.23764 10.3379 5.89215 10.1591 5.5688 9.94488C5.95395 10.4716 6.51105 10.8473 7.14378 11.0069C6.87379 11.3489 6.54079 11.7539 6.54079 11.7539C6.00617 11.7683 5.4762 11.6511 4.99754 11.4125C4.51887 11.174 4.10619 10.8214 3.79583 10.3859C3.82434 8.56151 4.2667 6.76744 5.08956 5.13894C5.81499 4.56925 6.6995 4.23903 7.62078 4.19395L7.71078 4.30195C6.84475 4.51627 6.03659 4.91881 5.34381 5.48093C5.34381 5.48093 5.5418 5.37293 5.8748 5.21994C6.52243 4.9244 7.21268 4.73305 7.92003 4.65294C7.97041 4.64252 8.0216 4.63649 8.07302 4.63494C8.67612 4.55637 9.28646 4.55032 9.891 4.61694C10.8417 4.72553 11.762 5.01903 12.6 5.48093C11.9423 4.94559 11.1785 4.55601 10.359 4.33795L10.485 4.19395C11.4063 4.23903 12.2908 4.56925 13.0162 5.13894C13.8391 6.76744 14.2814 8.56151 14.3099 10.3859C13.9973 10.8214 13.5829 11.1738 13.103 11.4127C12.623 11.6515 12.0919 11.7694 11.556 11.7561Z" fill="white"/>
</g>
<defs>
<clipPath id="clip0_222_192">
<rect width="17.1429" height="17.1429" fill="white" transform="scale(1.04999)"/>
</clipPath>
</defs>
</svg>
