<svg width="35" height="29" viewBox="0 0 35 29" fill="none" xmlns="http://www.w3.org/2000/svg">
<path d="M21.0224 20.0489H14.0002V17.9998H21.0224V20.0489Z" fill="white"/>
<path d="M8.69681 15.5462L11.1539 9.84214H13.2887L15.7163 15.5462H13.6405L12.5127 12.474C12.3757 12.0926 12.279 11.7435 12.22 11.4212C12.1609 11.7435 12.0642 12.0953 11.9273 12.474L10.7565 15.5462H8.69413H8.69681Z" fill="white"/>
<path d="M19.3039 15.5462L21.761 9.84214H23.8958L26.3233 15.5462H24.2476L23.1224 12.474C22.9855 12.0926 22.8888 11.7435 22.8297 11.4212C22.7707 11.7435 22.674 12.0953 22.537 12.474L21.3662 15.5462H19.3039Z" fill="white"/>
<path d="M6.69813 28.9998C5.30658 28.9998 4.24734 28.6486 3.52041 27.9463C2.81425 27.2647 2.46117 26.2423 2.46117 24.8791V17.0095C2.46117 16.4518 2.33656 16.049 2.08732 15.8012C1.85886 15.5533 1.51617 15.4294 1.05924 15.4294H0V13.5704H1.05924C1.51617 13.5704 1.85886 13.4465 2.08732 13.1986C2.33656 12.9507 2.46117 12.548 2.46117 11.9903V4.12069C2.46117 2.7368 2.81425 1.70405 3.52041 1.02243C4.24734 0.340809 5.30658 0 6.69813 0H7.88199V1.82798H7.04082C6.25159 1.82798 5.65966 2.04486 5.26504 2.47861C4.87042 2.91237 4.67311 3.52169 4.67311 4.30659V11.9593C4.67311 12.579 4.60042 13.0644 4.45503 13.4155C4.30965 13.7666 4.08119 14.0351 3.76964 14.221C3.47887 14.4069 3.09464 14.5515 2.61694 14.6548V14.345C3.09464 14.4276 3.47887 14.5722 3.76964 14.7787C4.08119 14.9646 4.30965 15.2331 4.45503 15.5843C4.60042 15.9354 4.67311 16.4208 4.67311 17.0405V24.6932C4.67311 25.4781 4.87042 26.0874 5.26504 26.5211C5.65966 26.9549 6.25159 27.1718 7.04082 27.1718H7.88199V28.9998H6.69813Z" fill="white"/>
<path d="M27.8785 28.9998C29.2701 28.9998 30.3293 28.6486 31.0562 27.9463C31.7624 27.2647 32.1155 26.2423 32.1155 24.8791V17.0095C32.1155 16.4518 32.2401 16.049 32.4893 15.8012C32.7178 15.5533 33.0605 15.4294 33.5174 15.4294H34.5767V13.5704H33.5174C33.0605 13.5704 32.7178 13.4465 32.4893 13.1986C32.2401 12.9507 32.1155 12.548 32.1155 11.9903V4.12069C32.1155 2.7368 31.7624 1.70405 31.0562 1.02243C30.3293 0.340809 29.2701 0 27.8785 0H26.6947V1.82798H27.5358C28.3251 1.82798 28.917 2.04486 29.3116 2.47861C29.7062 2.91237 29.9035 3.52169 29.9035 4.30659V11.9593C29.9035 12.579 29.9762 13.0644 30.1216 13.4155C30.267 13.7666 30.4955 14.0351 30.807 14.221C31.0978 14.4069 31.482 14.5515 31.9597 14.6548V14.345C31.482 14.4276 31.0978 14.5722 30.807 14.7787C30.4955 14.9646 30.267 15.2331 30.1216 15.5843C29.9762 15.9354 29.9035 16.4208 29.9035 17.0405V24.6932C29.9035 25.4781 29.7062 26.0874 29.3116 26.5211C28.917 26.9549 28.3251 27.1718 27.5358 27.1718H26.6947V28.9998H27.8785Z" fill="white"/>
</svg>
