<svg width="141" height="96" viewBox="0 0 141 96" fill="none" xmlns="http://www.w3.org/2000/svg">
<path d="M1.11045 44.4833C0.247688 43.8476 0.310392 42.5384 1.22996 41.9881L3.69303 40.514L3.43621 40.0848L8.36237 37.1366L8.61919 37.5657L13.5454 34.6175L13.2885 34.1884L18.2147 31.2402L18.4715 31.6693L23.3977 28.7211L23.1408 28.292L28.067 25.3438L28.3238 25.7729L33.25 22.8247L32.9932 22.3955L37.9193 19.4473L38.1761 19.8765L43.1023 16.9282L42.8455 16.4991L47.7716 13.5509L48.0285 13.98L52.9546 11.0318L52.6978 10.6027L57.6239 7.65448L57.8808 8.0836L62.8069 5.13539L62.5501 4.70627L67.4763 1.75805L67.7331 2.18718L70.1962 0.713066C70.7193 0.399974 71.3799 0.434595 71.8675 0.800659L74.2972 2.62497L74.5975 2.22505L79.457 5.87367L79.1567 6.2736L84.0162 9.92222L84.3165 9.5223L89.1759 13.1709L88.8757 13.5708L93.7352 17.2195L94.0354 16.8196L98.8949 20.4682L98.5947 20.8681L103.454 24.5167L103.754 24.1168L108.614 27.7654L108.314 28.1654L113.173 31.814L113.473 31.4141L118.333 35.0627L118.033 35.4626L122.892 39.1112L123.192 38.7113L128.052 42.3599L127.752 42.7599L132.611 46.4085L132.911 46.0086L137.771 49.6572L137.471 50.0571L139.9 51.8814C140.758 52.5253 140.683 53.835 139.757 54.3763L137.294 55.8165L137.546 56.2482L132.62 59.1286L132.368 58.6969L127.442 61.5772L127.694 62.009L122.768 64.8893L122.516 64.4576L117.59 67.3379L117.842 67.7697L112.916 70.65L112.664 70.2183L107.738 73.0987L107.99 73.5304L103.064 76.4107L102.812 75.979L97.8857 78.8594L98.1381 79.2911L93.2121 82.1714L92.9597 81.7397L88.0337 84.6201L88.2861 85.0518L83.3601 87.9321L83.1077 87.5004L78.1817 90.3808L78.4341 90.8125L73.5081 93.6929L73.2556 93.2611L70.7926 94.7013C70.2754 95.0038 69.6277 94.9694 69.1453 94.614L66.7155 92.8236L66.4189 93.2262L61.5592 89.6455L61.8559 89.2429L56.9963 85.6621L56.6996 86.0647L51.84 82.4839L52.1366 82.0813L47.277 78.5006L46.9803 78.9032L42.1207 75.3224L42.4173 74.9198L37.5577 71.339L37.2611 71.7416L32.4014 68.1609L32.6981 67.7583L27.8384 64.1775L27.5418 64.5801L22.6822 60.9993L22.9788 60.5967L18.1192 57.016L17.8225 57.4186L12.9629 53.8378L13.2595 53.4352L8.3999 49.8544L8.10324 50.257L3.24361 46.6763L3.54027 46.2737L1.11045 44.4833Z" stroke="#32427E" stroke-dasharray="6 6"/>
<path d="M63.2509 41.7149L77.5301 52.4242" stroke="#32427E" stroke-linecap="round" stroke-linejoin="round"/>
<path d="M78.0431 42.478L62.7378 51.6612" stroke="#32427E" stroke-linecap="round" stroke-linejoin="round"/>
</svg>
