<svg width="83" height="56" viewBox="0 0 83 56" fill="none" xmlns="http://www.w3.org/2000/svg">
<g clip-path="url(#clip0_224_1469)">
<path d="M21.9672 23.3997L18.9195 31.2576L30.8994 30.0989L33.9482 22.2403L21.9672 23.3997ZM36.9966 14.3821L33.9487 22.2406L45.9295 21.0819L48.9775 13.2233L36.9966 14.3821ZM27.8525 37.9573L39.8324 36.7986L42.8812 28.94L30.9002 30.0995L27.8525 37.9573ZM45.9295 21.0819L42.8817 28.9404L54.8624 27.7815L57.9104 19.9231L45.9295 21.0819ZM41.3313 37.922L53.3124 36.7626L56.36 28.9047L44.3802 30.0635L41.3313 37.922Z" fill="white"/>
</g>
<defs>
<clipPath id="clip0_224_1469">
<rect width="50" height="50" fill="white" transform="matrix(0.858789 -0.515273 0.801209 0.600907 0 25.7637)"/>
</clipPath>
</defs>
</svg>
