<svg width="140" height="96" viewBox="0 0 140 96" fill="none" xmlns="http://www.w3.org/2000/svg">
<path d="M1.10672 43.7756C0.246745 43.1299 0.318235 41.8178 1.24327 41.2693L3.68624 39.8209L3.42956 39.388L8.3155 36.4912L8.57218 36.9242L13.4581 34.0274L13.2014 33.5944L18.0874 30.6977L18.3441 31.1306L23.23 28.2338L22.9733 27.8009L27.8593 24.9041L28.1159 25.337L33.0019 22.4403L32.7452 22.0073L37.6312 19.1105L37.8878 19.5435L42.7738 16.6467L42.5171 16.2138L47.403 13.317L47.6597 13.7499L52.5457 10.8531L52.289 10.4202L57.1749 7.52343L57.4316 7.95637L62.3175 5.05959L62.0609 4.62665L66.9468 1.72988L67.2035 2.16282L69.6464 0.714426C70.1755 0.400762 70.8419 0.439338 71.3313 0.811947L71.6353 0.412661L71.3313 0.811948L73.7429 2.64837L74.0478 2.24794L78.8712 5.92078L78.5662 6.32121L83.3896 9.99405L83.6945 9.59362L88.5178 13.2665L88.2129 13.6669L93.0362 17.3397L93.3412 16.9393L98.1645 20.6121L97.8596 21.0126L102.683 24.6854L102.988 24.285L107.811 27.9578L107.506 28.3583L112.33 32.0311L112.634 31.6307L117.458 35.3035L117.153 35.7039L121.976 39.3768L122.281 38.9764L127.104 42.6492L126.8 43.0496L131.623 46.7225L131.928 46.322L136.751 49.9949L136.446 50.3953L138.858 52.2317C139.707 52.8782 139.636 54.1772 138.721 54.7271L136.312 56.1754L136.572 56.6068L131.754 59.5035L131.495 59.0721L126.677 61.9688L126.936 62.4002L122.119 65.2968L121.859 64.8655L117.042 67.7622L117.301 68.1935L112.484 71.0902L112.224 70.6589L107.407 73.5556L107.666 73.9869L102.848 76.8836L102.589 76.4523L97.7712 79.349L98.0306 79.7803L93.213 82.677L92.9536 82.2457L88.136 85.1423L88.3953 85.5737L83.5777 88.4704L83.3183 88.039L78.5007 90.9357L78.76 91.3671L73.9424 94.2638L73.6831 93.8324L71.2742 95.2808C70.7474 95.5975 70.0811 95.5633 69.5896 95.1942L67.1437 93.3578L66.8415 93.7603L61.9499 90.0876L62.2521 89.6851L57.3605 86.0123L57.0583 86.4148L52.1667 82.7421L52.4689 82.3396L47.5772 78.6668L47.275 79.0693L42.3834 75.3965L42.6856 74.994L37.794 71.3213L37.4918 71.7238L32.6001 68.051L32.9023 67.6485L28.0107 63.9758L27.7085 64.3783L22.8169 60.7055L23.1191 60.303L18.2274 56.6303L17.9252 57.0328L13.0336 53.36L13.3358 52.9575L8.44417 49.2848L8.14197 49.6872L3.25034 46.0145L3.55254 45.612L1.10672 43.7756Z" stroke="#32427E" stroke-dasharray="6 6"/>
<path d="M62.6646 41.9811L77.0354 52.7591" stroke="#32427E" stroke-linecap="round" stroke-linejoin="round"/>
<path d="M77.5517 42.7491L62.1482 51.9912" stroke="#32427E" stroke-linecap="round" stroke-linejoin="round"/>
</svg>
