<svg width="83" height="56" viewBox="0 0 83 56" fill="none" xmlns="http://www.w3.org/2000/svg">
<path d="M32.6313 30.0667C32.9749 30.3245 33.2934 30.5094 33.5673 30.6209C33.8855 30.7402 34.2154 30.8439 34.5542 30.9312C34.6783 30.957 34.7724 31.0008 34.8375 31.0496C34.9302 31.1192 34.9635 31.2247 34.927 31.372L34.69 32.0406C34.6561 32.1362 34.5944 32.2108 34.5146 32.2587C34.4152 32.3183 34.2692 32.3432 34.086 32.3403C33.8175 32.3199 33.5514 32.2823 33.2914 32.2279C33.0341 32.1694 32.758 32.0967 32.435 32.0022C32.5129 33.1086 31.9646 34.0143 30.7903 34.7189C29.9543 35.2205 29.0645 35.4535 28.1311 35.4119C27.1977 35.3701 26.3547 35.0737 25.6119 34.5166C24.8226 33.9247 24.4805 33.265 24.6048 32.5386C24.729 31.8122 25.2938 31.1474 26.3189 30.5323C26.6573 30.3293 27.0335 30.1411 27.4481 29.955C27.8629 29.7689 28.3154 29.5977 28.7971 29.4215L28.1193 28.9131C27.4135 28.3838 26.7621 28.1103 26.1657 28.0796C25.5594 28.0547 24.8825 28.2727 24.1162 28.7325C23.7678 28.9415 23.4468 29.1844 23.1621 29.4681C22.8774 29.7516 22.6212 30.0433 22.4029 30.3498C22.3086 30.494 22.2263 30.5935 22.1752 30.6494C22.1242 30.7051 22.0836 30.7419 22.0438 30.7657C21.9045 30.8494 21.742 30.8215 21.547 30.6752L21.0919 30.334C20.9434 30.2226 20.852 30.127 20.8367 30.0485C20.8214 29.9699 20.846 29.8674 20.9204 29.735C21.1016 29.4007 21.3803 29.0454 21.7565 28.6692C22.1236 28.286 22.5855 27.9337 23.1329 27.6053C24.3174 26.8946 25.4339 26.563 26.4928 26.6047C27.5415 26.6523 28.5816 27.0562 29.6031 27.8223L32.6115 30.0786L32.6315 30.0666L32.6313 30.0667ZM30.0018 33.5498C30.3303 33.3527 30.6131 33.1079 30.8598 32.8094C31.1067 32.5108 31.221 32.1665 31.211 31.7964C31.194 31.5685 31.1184 31.3506 30.9552 31.1476C30.7921 30.9447 30.5626 30.7188 30.2469 30.482L29.8569 30.1895C29.4865 30.3192 29.1281 30.4631 28.7834 30.6206C28.4363 30.7792 28.1052 30.9527 27.7921 31.1401C27.1252 31.5402 26.7583 31.9233 26.6806 32.3084C26.6028 32.6936 26.7964 33.0537 27.2607 33.4019C27.6971 33.7292 28.1415 33.9013 28.6132 33.9192C29.0843 33.95 29.544 33.8245 30.0018 33.5498ZM38.9968 29.5067C38.8176 29.6142 38.6704 29.6649 38.5257 29.6639C38.3905 29.6699 38.1907 29.6143 37.9547 29.5178L28.4381 25.5378C28.1924 25.4344 28.0419 25.3617 27.977 25.313C27.8284 25.2016 27.8243 25.0911 27.9837 24.9955L28.959 24.4103C29.148 24.2969 29.3055 24.2401 29.4401 24.2471C29.5754 24.2411 29.7652 24.3028 30.0012 24.3993L37.8204 28.0063L33.226 22.4644C33.0901 22.2953 33.0291 22.1689 33.0528 22.0794C33.0769 21.9898 33.1792 21.8783 33.3583 21.7708L34.1545 21.2931C34.3435 21.1797 34.5009 21.1229 34.6453 21.1239C34.7808 21.1179 34.9804 21.1736 35.1966 21.282L42.9906 25.0044L38.491 19.3054C38.3649 19.1304 38.314 18.998 38.3278 18.9144C38.3518 18.8249 38.4441 18.7194 38.6232 18.6119L39.5488 18.0566C39.7081 17.961 39.872 17.9629 40.0298 18.0813C40.0763 18.1161 40.1127 18.157 40.1584 18.2047C40.2042 18.2525 40.2586 18.3201 40.321 18.4206L45.0999 25.2431C45.226 25.4182 45.2771 25.5505 45.253 25.6401C45.2292 25.7297 45.1369 25.8352 44.9679 25.9366L44.1119 26.4502C43.9228 26.5637 43.7656 26.6204 43.6208 26.6195C43.4762 26.6185 43.2859 26.5697 43.0604 26.4544L35.5284 22.8881L39.9755 28.2926C40.1116 28.4617 40.1725 28.5881 40.1579 28.6846C40.1433 28.7812 40.0318 28.8857 39.8527 28.9931L38.9967 29.5067L38.9968 29.5067ZM52.0369 22.0211C51.5194 22.3316 50.9461 22.6003 50.3371 22.8153C49.728 23.0304 49.2191 23.1726 48.8212 23.2235C48.5782 23.2564 48.3759 23.2525 48.2526 23.2136C48.1319 23.1754 48.023 23.1213 47.9328 23.0545L47.4592 22.6993C47.2643 22.5531 47.251 22.4356 47.4003 22.346C47.4615 22.3096 47.5314 22.2804 47.6074 22.2595C47.6857 22.2377 47.8123 22.2117 47.949 22.1798C48.4448 22.0771 48.9207 21.9386 49.3688 21.7667C49.8324 21.5881 50.2665 21.3781 50.6646 21.1396C51.2916 20.7634 51.6772 20.3942 51.8113 20.0379C51.9454 19.6817 51.8275 19.3514 51.4468 19.0658C51.1868 18.8708 50.8836 18.7644 50.528 18.7395C50.1725 18.7148 49.6762 18.7994 49.04 18.9805L47.1789 19.5331C46.2388 19.8088 45.3857 19.8945 44.6393 19.7782C43.9023 19.6688 43.2782 19.4291 42.7953 19.067C42.4054 18.7745 42.1513 18.463 42.0333 18.1326C41.9153 17.8024 41.8943 17.4641 41.9886 17.1317C42.0736 16.7924 42.2541 16.4709 42.5408 16.1485C42.8275 15.8261 43.199 15.5405 43.6369 15.2777C43.8559 15.1464 44.0942 15.016 44.341 14.9055C44.5978 14.7889 44.8439 14.6914 45.09 14.5939C45.3355 14.5093 45.5711 14.4306 45.806 14.3649C46.0408 14.2992 46.2358 14.2574 46.391 14.2394C46.6048 14.2116 46.7785 14.2076 46.9218 14.2345C47.0559 14.2543 47.1878 14.313 47.3178 14.4105L47.7542 14.7378C47.9492 14.884 47.9718 15.0084 47.8225 15.0981C47.7428 15.1458 47.5762 15.1955 47.3329 15.2413C46.524 15.4007 45.7663 15.6923 45.0597 16.1163C44.4924 16.4567 44.128 16.7881 43.996 17.1056C43.8639 17.4229 43.9739 17.7205 44.3546 18.006C44.6146 18.2011 44.937 18.3084 45.3125 18.3214C45.6879 18.3342 46.2326 18.2456 46.918 18.0475L48.7492 17.5129C49.6794 17.2432 50.494 17.1554 51.1832 17.2558C51.8725 17.3562 52.4583 17.5939 52.9411 17.9561C53.3404 18.2555 53.6128 18.581 53.7594 18.9192C53.896 19.2634 53.9356 19.6157 53.85 19.968C53.7735 20.3273 53.5725 20.6736 53.2652 21.0209C52.9473 21.3872 52.5445 21.7165 52.0369 22.0211Z" fill="white"/>
<path d="M58.4308 24.2774C57.4128 27.9343 53.8531 31.6872 49.7626 34.1415C44.0297 37.5813 36.8863 39.1972 29.6978 39.0727C29.1293 39.0629 29.0551 38.6311 29.6274 38.5633C36.1318 37.7446 42.7207 35.659 48.1052 32.4283C51.738 30.2486 55.0234 27.3247 57.2475 24.0347C57.5627 23.5321 58.597 23.6764 58.4308 24.2774ZM58.3459 22.3728C57.4265 22.2475 55.3375 23.8519 54.3933 24.5814C54.112 24.8004 53.8022 24.6352 53.8959 24.3158C54.5412 22.2738 57.9697 20.6932 58.7364 20.7846C59.5126 20.8831 61.9239 23.3097 61.5465 25.3914C61.4915 25.7128 61.1213 25.7845 60.9621 25.504C60.4408 24.5756 59.256 22.4911 58.3459 22.3728Z" fill="white"/>
</svg>
