<svg width="83" height="56" viewBox="0 0 83 56" fill="none" xmlns="http://www.w3.org/2000/svg">
<g clip-path="url(#clip0_224_1391)">
<path fill-rule="evenodd" clip-rule="evenodd" d="M31.2252 28.2488C30.6183 28.6129 30.1289 29.0571 29.7849 29.556C29.4409 30.055 29.249 30.5988 29.2202 31.1566C29.1915 31.7143 29.3264 32.275 29.6172 32.8067C29.9081 33.3384 30.3492 33.8306 30.9154 34.2552C31.4816 34.6799 32.1618 35.0286 32.9171 35.2816C33.6724 35.5346 34.4881 35.6868 35.3176 35.7296C36.1471 35.7724 36.9742 35.7049 37.7515 35.531C38.5289 35.3571 39.2414 35.0802 39.8482 34.716L44.4696 31.9432L40.2449 28.7747C40.1863 28.7317 40.1284 28.6883 40.0713 28.6445L35.8466 25.476L31.2252 28.2488ZM33.3428 23.5981L28.7215 26.371C27.4956 27.1065 25.8655 27.4712 24.19 27.3847C22.5144 27.2983 20.9306 26.7678 19.7869 25.9101C18.6432 25.0523 18.0333 23.9374 18.0914 22.8108C18.1495 21.6841 18.8709 20.638 20.0968 19.9024L24.7181 17.1296L33.3428 23.5981ZM27.4018 15.5194L36.0265 21.9879L40.6479 19.2151C41.8358 18.4723 42.5243 17.4327 42.5654 16.3196C42.6065 15.2064 41.997 14.1084 40.8677 13.2615C39.7385 12.4146 38.1796 11.8863 36.5259 11.79C34.8722 11.6937 33.2556 12.0372 32.0232 12.7466L27.4018 15.5194ZM43.15 21.0917C41.9368 21.8194 41.2172 22.8517 41.1464 23.9658C41.0756 25.08 41.6594 26.1866 42.7717 27.0468L42.9102 27.1507C43.7747 27.779 44.8848 28.2288 46.1013 28.4436C47.3178 28.6584 48.5863 28.6285 49.7475 28.3579C50.9088 28.0872 51.9109 27.5877 52.6282 26.9222C53.3455 26.2567 53.7458 25.4548 53.7789 24.6173C53.8121 23.7797 53.4765 22.9439 52.8145 22.2147C52.1524 21.4855 51.1933 20.8955 50.0577 20.5189C48.9221 20.1422 47.6605 19.9956 46.4315 20.0975C45.2025 20.1994 44.0609 20.5453 43.15 21.0917ZM42.352 36.5939C41.4372 37.1423 40.7959 37.8682 40.5091 38.6798C40.2224 39.4914 40.303 40.3523 40.741 41.1535C41.1789 41.9547 41.9543 42.6602 42.9693 43.1809C43.9843 43.7016 45.1931 44.014 46.443 44.0786C47.6929 44.1433 48.9276 43.9572 49.991 43.544C51.0544 43.1308 51.8987 42.509 52.4172 41.7573C52.9357 41.0056 53.105 40.1577 52.9037 39.3208C52.7025 38.484 52.1397 37.6958 51.2866 37.0559L46.9734 33.8211L42.352 36.5939Z" fill="white"/>
</g>
<defs>
<clipPath id="clip0_224_1391">
<rect width="50" height="50" fill="white" transform="matrix(0.858789 -0.515273 0.801209 0.600907 0 25.7637)"/>
</clipPath>
</defs>
</svg>
