<svg width="83" height="56" viewBox="0 0 83 56" fill="none" xmlns="http://www.w3.org/2000/svg">
<g clip-path="url(#clip0_224_1375)">
<path d="M55.0608 20.7215C56.6804 21.8061 58.0105 23.0377 59.3009 24.2981C60.6227 25.582 61.8814 26.8941 62.9411 28.2819C63.611 29.1744 64.1801 30.0863 64.5458 31.0485C64.9909 32.2276 64.6514 33.2538 63.3928 34.0745L59.7339 36.3135C59.106 36.6696 58.3717 36.9537 57.6369 37.2114C56.219 37.6982 54.8547 37.5462 53.5856 36.8518C52.4358 36.2314 51.4535 35.4777 50.6908 34.6287C49.8282 33.6541 49.8927 32.7297 50.9528 31.9202C51.65 31.3806 52.473 30.9146 53.248 30.4217C53.4392 30.2985 53.601 30.3288 53.7015 30.4978C53.989 30.9684 54.4357 31.3554 55.0656 31.6484C55.3027 31.7573 55.3194 31.8686 55.0893 32.0042C54.7194 32.2147 54.3738 32.4435 54.0552 32.689C53.5198 33.1146 53.5528 33.5606 54.1298 33.9933C54.314 34.1315 54.5287 34.2587 54.7523 34.3744C55.3072 34.6566 55.8867 34.6401 56.4138 34.393C57.6097 33.8295 58.7023 33.1873 59.6151 32.4116C60.1628 31.9446 60.1701 31.4234 59.6468 30.9269C58.625 29.9629 57.4713 29.0937 55.9718 28.4672C54.6726 27.9219 53.5964 27.9938 52.3885 28.5547L48.6666 30.1327C47.4721 30.6152 46.232 30.5174 45.1097 29.9617C44.4704 29.6513 43.9234 29.2541 43.3246 28.9012C43.2168 28.8373 43.0664 28.8038 42.9587 28.7568C43.01 28.8473 43.0471 28.9609 43.1389 29.0441C43.6865 29.5406 44.3218 30.0002 44.794 30.526C45.3588 31.1577 45.8122 31.815 46.2426 32.4837C46.5451 32.9512 46.4014 33.4039 45.8008 33.7193C43.2781 34.9642 40.5733 36.0374 37.7236 36.9242L36.9211 37.1546C35.7945 37.5151 34.6772 37.4053 33.639 36.9557L29.2132 34.9368L24.6361 32.4662C23.8468 32.0238 23.0748 31.5553 22.4955 30.9687C21.6445 30.1302 21.6657 29.1578 22.6955 28.4659L26.0671 26.3678C26.1894 26.2944 26.3144 26.223 26.403 26.1347C26.6361 25.9308 26.7487 25.6741 26.7202 25.4115C26.6918 25.149 26.5241 24.8981 26.2481 24.705L23.4715 22.6877C22.009 21.6532 22.1033 20.6212 23.192 19.6743C24.4966 18.5275 26.1969 17.6153 28.1552 17.0118C29.3011 16.6579 30.3978 16.7861 31.4518 17.2541C31.7054 17.3688 31.862 17.3719 32.0661 17.2337L34.5623 15.7481L38.1053 14.0712C38.8515 13.7387 39.6439 13.4513 40.4401 13.1799C41.8301 12.7074 43.1665 12.8931 44.3574 13.5665L47.7164 15.6214L53.0172 19.207L55.0732 20.7359L55.0608 20.7215ZM49.6554 22.5634C49.0377 22.1261 48.4494 21.7499 47.6245 21.6176C47.3205 21.578 47.0102 21.5817 46.7138 21.6285C46.4174 21.6753 46.1416 21.7642 45.9044 21.8893C45.6673 22.0144 45.4741 22.173 45.3374 22.3546C45.2008 22.5363 45.1238 22.7369 45.1114 22.9435C45.1203 23.4235 45.4264 23.8221 45.8263 24.2131C45.8492 24.2406 46.0416 24.2367 46.0937 24.2055L46.8166 23.7074C47.5627 23.2683 48.3852 22.9034 49.3371 22.6719C49.4241 22.6513 49.5041 22.6203 49.6616 22.5706L49.6554 22.5634ZM21.1832 22.0443C21.4393 22.5031 21.8358 22.9237 22.3461 23.278L25.031 25.2266C25.3567 25.4643 25.3632 25.5733 25.0183 25.7802L22.1269 27.5466C21.5653 27.8835 21.1157 28.2746 20.8798 28.6321L21.097 22.0329C21.128 22.0301 21.1652 22.032 21.2024 22.034L21.1832 22.0443Z" fill="white"/>
</g>
<defs>
<clipPath id="clip0_224_1375">
<rect width="50" height="50" fill="white" transform="matrix(0.858789 -0.515273 0.801209 0.600907 0 25.7637)"/>
</clipPath>
</defs>
</svg>
