<svg width="93" height="27" viewBox="0 0 93 27" fill="none" xmlns="http://www.w3.org/2000/svg">
<path d="M86.1528 14.6105C85.7623 14.6105 85.3719 14.5454 84.9815 14.4153C84.5911 14.2852 84.2658 14.105 84.0055 13.8747L84.7563 12.4933C84.9465 12.6634 85.1617 12.7986 85.402 12.8987C85.6422 12.9988 85.8875 13.0489 86.1377 13.0489C86.4781 13.0489 86.7534 12.9638 86.9636 12.7936C87.1738 12.6234 87.369 12.3381 87.5492 11.9377L88.0147 10.8866L88.1649 10.6613L91.1981 3.57384H93L89.246 12.238C88.9958 12.8386 88.7155 13.3141 88.4051 13.6645C88.1048 14.0149 87.7645 14.2601 87.3841 14.4003C87.0137 14.5404 86.6032 14.6105 86.1528 14.6105ZM87.8045 11.8776L84.1857 3.57384H86.1377L89.0809 10.4962L87.8045 11.8776Z" fill="white"/>
<path d="M82.2928 11.6978C81.4118 11.6978 80.7311 11.4725 80.2506 11.0221C79.7701 10.5616 79.5299 9.88587 79.5299 8.99493V1.80233H81.4068V8.94988C81.4068 9.33028 81.5019 9.62559 81.6921 9.83582C81.8924 10.046 82.1676 10.1511 82.518 10.1511C82.9385 10.1511 83.2888 10.041 83.5691 9.8208L84.0947 11.1572C83.8744 11.3374 83.6042 11.4725 83.2838 11.5626C82.9635 11.6527 82.6331 11.6978 82.2928 11.6978ZM78.2085 5.13585V3.63426H83.5541V5.13585H78.2085Z" fill="white"/>
<path d="M74.9342 11.5923V3.57378H76.8111V11.5923H74.9342ZM75.8802 2.25238C75.5298 2.25238 75.2395 2.14226 75.0092 1.92203C74.789 1.7018 74.6789 1.43652 74.6789 1.12619C74.6789 0.805851 74.789 0.540571 75.0092 0.330349C75.2395 0.110116 75.5298 0 75.8802 0C76.2305 0 76.5158 0.105111 76.7361 0.315333C76.9663 0.515545 77.0814 0.770815 77.0814 1.08114C77.0814 1.41149 76.9713 1.69179 76.7511 1.92203C76.5308 2.14226 76.2405 2.25238 75.8802 2.25238Z" fill="white"/>
<path d="M69.2044 3.48384C69.8451 3.48384 70.4157 3.60898 70.9162 3.85924C71.4267 4.10951 71.8272 4.49491 72.1175 5.01546C72.4078 5.526 72.5529 6.1867 72.5529 6.99756V11.5924H70.6759V7.23781C70.6759 6.52706 70.5058 5.9965 70.1654 5.64613C69.8351 5.29576 69.3696 5.12057 68.7689 5.12057C68.3285 5.12057 67.938 5.21067 67.5977 5.39086C67.2573 5.57105 66.992 5.84134 66.8018 6.20172C66.6217 6.55209 66.5316 6.99756 66.5316 7.53813V11.5924H64.6546V3.57394H66.4415V5.73622L66.1261 5.07553C66.4064 4.56499 66.8119 4.17457 67.3424 3.90429C67.883 3.62399 68.5036 3.48384 69.2044 3.48384Z" fill="white"/>
<path d="M60.4739 11.5924V9.9707L60.3688 9.62533V6.78734C60.3688 6.23675 60.2036 5.8113 59.8733 5.51099C59.5429 5.20066 59.0424 5.04549 58.3717 5.04549C57.9212 5.04549 57.4758 5.11557 57.0353 5.25572C56.6048 5.39586 56.2395 5.59107 55.9391 5.84134L55.2034 4.47489C55.6338 4.14454 56.1444 3.89928 56.735 3.73911C57.3356 3.56893 57.9563 3.48384 58.5969 3.48384C59.7582 3.48384 60.6541 3.76414 61.2848 4.32473C61.9255 4.87531 62.2458 5.73122 62.2458 6.89245V11.5924H60.4739ZM57.9513 11.6975C57.3506 11.6975 56.8251 11.5974 56.3746 11.3972C55.9241 11.187 55.5738 10.9017 55.3235 10.5413C55.0832 10.1709 54.9631 9.75547 54.9631 9.29498C54.9631 8.84451 55.0682 8.43908 55.2784 8.0787C55.4987 7.71832 55.854 7.43302 56.3446 7.2228C56.8351 7.01257 57.4858 6.90746 58.2966 6.90746H60.6241V8.15378H58.4318C57.7911 8.15378 57.3606 8.25889 57.1404 8.46911C56.9202 8.66932 56.8101 8.91959 56.8101 9.21991C56.8101 9.56027 56.9452 9.83055 57.2155 10.0308C57.4858 10.231 57.8612 10.3311 58.3417 10.3311C58.8022 10.3311 59.2126 10.226 59.573 10.0157C59.9434 9.80552 60.2087 9.4952 60.3688 9.08476L60.6841 10.211C60.504 10.6815 60.1786 11.0468 59.7081 11.3071C59.2476 11.5674 58.662 11.6975 57.9513 11.6975Z" fill="white"/>
<path d="M49.8467 3.48384C50.4874 3.48384 51.053 3.60898 51.5435 3.85924C52.044 4.10951 52.4344 4.49491 52.7147 5.01546C52.995 5.526 53.1352 6.1867 53.1352 6.99756V11.5924H51.2582V7.23781C51.2582 6.52706 51.103 5.9965 50.7927 5.64613C50.4824 5.29576 50.0369 5.12057 49.4563 5.12057C49.0458 5.12057 48.6805 5.21067 48.3601 5.39086C48.0498 5.57105 47.8045 5.83633 47.6243 6.1867C47.4542 6.53707 47.3691 6.98254 47.3691 7.52311V11.5924H45.4921V7.23781C45.4921 6.52706 45.3369 5.9965 45.0266 5.64613C44.7163 5.29576 44.2708 5.12057 43.6902 5.12057C43.2798 5.12057 42.9144 5.21067 42.594 5.39086C42.2837 5.57105 42.0384 5.83633 41.8582 6.1867C41.6881 6.53707 41.603 6.98254 41.603 7.52311V11.5924H39.726V3.57394H41.5129V5.70619L41.1975 5.07553C41.4678 4.55498 41.8582 4.15956 42.3688 3.88927C42.8893 3.61899 43.48 3.48384 44.1407 3.48384C44.8915 3.48384 45.5421 3.66904 46.0927 4.03943C46.6533 4.40982 47.0237 4.97041 47.2039 5.72121L46.4681 5.46594C46.7284 4.8653 47.1588 4.3848 47.7595 4.02442C48.3601 3.66403 49.0559 3.48384 49.8467 3.48384Z" fill="white"/>
<path d="M32.8988 11.6974C32.2181 11.6974 31.6175 11.5723 31.0969 11.322C30.5764 11.0618 30.1709 10.6713 29.8806 10.1508C29.5903 9.62023 29.4452 8.95452 29.4452 8.15368V3.57384H31.3221V7.89841C31.3221 8.61917 31.4823 9.15974 31.8026 9.52012C32.133 9.87049 32.5985 10.0457 33.1991 10.0457C33.6396 10.0457 34.02 9.95558 34.3403 9.77539C34.6707 9.5952 34.9259 9.32492 35.1061 8.96454C35.2963 8.60415 35.3914 8.15868 35.3914 7.62812V3.57384H37.2684V11.5923H35.4815V9.43003L35.7969 10.0907C35.5266 10.6113 35.1312 11.0117 34.6106 11.292C34.0901 11.5623 33.5195 11.6974 32.8988 11.6974Z" fill="white"/>
<path d="M24.9168 1.0814H26.8689V11.5925H24.9168V1.0814ZM19.4811 11.5925H17.529V1.0814H19.4811V11.5925ZM25.067 7.08774H19.3159V5.42098H25.067V7.08774Z" fill="white"/>
<path d="M12.7339 11.5925V1.0814H14.686V11.5925H12.7339Z" fill="white"/>
<path d="M0 11.5925L4.73 1.0814H6.65203L11.397 11.5925H9.35489L5.28559 2.11749H6.06641L2.01213 11.5925H0ZM2.1773 9.15993L2.70286 7.62831H8.37885L8.90441 9.15993H2.1773Z" fill="white"/>
<path d="M45.9688 26.7572L47.7071 18.0423H48.2944L46.5561 26.7572H45.9688Z" fill="white"/>
<path d="M41.3049 26.8037C40.7568 26.8037 40.2792 26.7019 39.872 26.4983C39.4648 26.2869 39.1477 25.9894 38.9206 25.6057C38.7014 25.222 38.5918 24.7718 38.5918 24.255C38.5918 23.5503 38.7405 22.9239 39.0381 22.3758C39.3435 21.8199 39.7585 21.3814 40.2831 21.0603C40.8155 20.7393 41.4223 20.5788 42.1036 20.5788C42.6595 20.5788 43.1371 20.6845 43.5365 20.8959C43.9436 21.0995 44.2568 21.3931 44.4761 21.7768C44.7031 22.1526 44.8167 22.6029 44.8167 23.1275C44.8167 23.8322 44.664 24.4625 44.3586 25.0184C44.0611 25.5665 43.6461 26.0011 43.1136 26.3221C42.589 26.6432 41.9861 26.8037 41.3049 26.8037ZM41.3519 26.2752C41.9078 26.2752 42.4011 26.142 42.8318 25.8758C43.2624 25.6096 43.603 25.2416 43.8536 24.7718C44.1041 24.2942 44.2294 23.7578 44.2294 23.1627C44.2294 22.505 44.0376 21.9999 43.6539 21.6476C43.2781 21.2874 42.7456 21.1073 42.0566 21.1073C41.5085 21.1073 41.0152 21.2443 40.5767 21.5184C40.146 21.7846 39.8054 22.1526 39.5549 22.6224C39.3043 23.0922 39.179 23.6247 39.179 24.2198C39.179 24.8697 39.367 25.3747 39.7428 25.7349C40.1265 26.0951 40.6628 26.2752 41.3519 26.2752Z" fill="white"/>
<path d="M34.94 26.8037C34.3763 26.8037 33.8869 26.7019 33.4719 26.4983C33.0569 26.2869 32.7359 25.9894 32.5088 25.6057C32.2896 25.222 32.1799 24.7718 32.1799 24.255C32.1799 23.5425 32.3287 22.9121 32.6263 22.364C32.9316 21.8081 33.3505 21.3735 33.883 21.0603C34.4154 20.7393 35.0223 20.5788 35.7035 20.5788C36.2516 20.5788 36.7214 20.6767 37.1129 20.8724C37.5122 21.0603 37.8176 21.3461 38.029 21.7298L37.5475 22.0234C37.3595 21.7102 37.109 21.4792 36.7958 21.3305C36.4826 21.1817 36.1067 21.1073 35.6682 21.1073C35.1045 21.1073 34.6034 21.2443 34.1649 21.5184C33.7342 21.7846 33.3936 22.1526 33.143 22.6224C32.8925 23.0922 32.7672 23.6247 32.7672 24.2198C32.7672 24.8697 32.959 25.3747 33.3427 25.7349C33.7264 26.0951 34.2745 26.2752 34.987 26.2752C35.3942 26.2752 35.7739 26.2008 36.1263 26.052C36.4865 25.8954 36.784 25.6722 37.0189 25.3825L37.43 25.7114C37.1638 26.0559 36.8075 26.3261 36.3612 26.5218C35.9227 26.7097 35.449 26.8037 34.94 26.8037Z" fill="white"/>
<path d="M27.6099 26.8037C27.0618 26.8037 26.5842 26.7019 26.177 26.4983C25.7698 26.2869 25.4527 25.9894 25.2257 25.6057C25.0064 25.222 24.8968 24.7718 24.8968 24.255C24.8968 23.5503 25.0456 22.9239 25.3431 22.3758C25.6485 21.8199 26.0635 21.3814 26.5881 21.0603C27.1205 20.7393 27.7274 20.5788 28.4086 20.5788C28.9645 20.5788 29.4421 20.6845 29.8415 20.8959C30.2486 21.0995 30.5618 21.3931 30.7811 21.7768C31.0082 22.1526 31.1217 22.6029 31.1217 23.1275C31.1217 23.8322 30.969 24.4625 30.6636 25.0184C30.3661 25.5665 29.9511 26.0011 29.4187 26.3221C28.894 26.6432 28.2911 26.8037 27.6099 26.8037ZM27.6569 26.2752C28.2128 26.2752 28.7061 26.142 29.1368 25.8758C29.5674 25.6096 29.908 25.2416 30.1586 24.7718C30.4092 24.2942 30.5344 23.7578 30.5344 23.1627C30.5344 22.505 30.3426 21.9999 29.9589 21.6476C29.5831 21.2874 29.0506 21.1073 28.3616 21.1073C27.8135 21.1073 27.3202 21.2443 26.8817 21.5184C26.4511 21.7846 26.1105 22.1526 25.8599 22.6224C25.6093 23.0922 25.484 23.6247 25.484 24.2198C25.484 24.8697 25.672 25.3747 26.0478 25.7349C26.4315 26.0951 26.9678 26.2752 27.6569 26.2752Z" fill="white"/>
<path d="M22.3493 26.8039C22.0126 26.8039 21.7268 26.7335 21.4919 26.5925C21.2649 26.4516 21.1083 26.248 21.0221 25.9818C20.936 25.7156 20.9282 25.3984 20.9986 25.0304L22.1497 19.2871H22.7369L21.5976 24.9835C21.5115 25.4141 21.5389 25.743 21.6799 25.97C21.8286 26.1893 22.0988 26.2989 22.4903 26.2989C22.6782 26.2989 22.8544 26.2715 23.0188 26.2167C23.1911 26.154 23.3477 26.0679 23.4886 25.9583L23.6648 26.3929C23.4769 26.5416 23.2654 26.6473 23.0305 26.71C22.8035 26.7726 22.5764 26.8039 22.3493 26.8039ZM20.6463 21.1311L20.7402 20.626H24.4165L24.3225 21.1311H20.6463Z" fill="white"/>
<path d="M15.8647 26.8037C15.3166 26.8037 14.839 26.7019 14.4318 26.4983C14.0246 26.2869 13.7075 25.9894 13.4805 25.6057C13.2612 25.222 13.1516 24.7718 13.1516 24.255C13.1516 23.5503 13.3004 22.9239 13.5979 22.3758C13.9033 21.8199 14.3183 21.3814 14.8429 21.0603C15.3753 20.7393 15.9822 20.5788 16.6634 20.5788C17.2193 20.5788 17.6969 20.6845 18.0963 20.8959C18.5034 21.0995 18.8166 21.3931 19.0359 21.7768C19.263 22.1526 19.3765 22.6029 19.3765 23.1275C19.3765 23.8322 19.2238 24.4625 18.9184 25.0184C18.6209 25.5665 18.2059 26.0011 17.6735 26.3221C17.1488 26.6432 16.5459 26.8037 15.8647 26.8037ZM15.9117 26.2752C16.4676 26.2752 16.9609 26.142 17.3916 25.8758C17.8222 25.6096 18.1628 25.2416 18.4134 24.7718C18.664 24.2942 18.7892 23.7578 18.7892 23.1627C18.7892 22.505 18.5974 21.9999 18.2137 21.6476C17.8379 21.2874 17.3054 21.1073 16.6164 21.1073C16.0683 21.1073 15.575 21.2443 15.1365 21.5184C14.7059 21.7846 14.3653 22.1526 14.1147 22.6224C13.8641 23.0922 13.7389 23.6247 13.7389 24.2198C13.7389 24.8697 13.9268 25.3747 14.3026 25.7349C14.6863 26.0951 15.2226 26.2752 15.9117 26.2752Z" fill="white"/>
<path d="M8.78395 26.7567L10.0054 20.6258H10.581L10.2051 22.4698L10.1346 22.2583C10.4009 21.7024 10.761 21.2835 11.2152 21.0016C11.6693 20.7197 12.2409 20.5788 12.93 20.5788L12.8243 21.1543C12.7929 21.1543 12.7616 21.1543 12.7303 21.1543C12.699 21.1465 12.6677 21.1426 12.6363 21.1426C11.9473 21.1426 11.3757 21.3501 10.9216 21.765C10.4752 22.1722 10.1699 22.7869 10.0054 23.609L9.37121 26.7567H8.78395Z" fill="white"/>
<path d="M0.89725 26.7569L2.54156 18.5353H5.40736C6.31565 18.5353 7.02035 18.735 7.52148 19.1343C8.0226 19.5258 8.27316 20.0818 8.27316 20.8021C8.27316 21.5068 8.12048 22.1019 7.81511 22.5874C7.50973 23.0729 7.07125 23.4409 6.49966 23.6914C5.93589 23.942 5.26642 24.0673 4.49125 24.0673H1.76639L2.09525 23.7854L1.49625 26.7569H0.89725ZM2.0835 23.8206L1.87209 23.527H4.49125C5.50132 23.527 6.28041 23.3038 6.82852 22.8575C7.38445 22.4034 7.66242 21.7339 7.66242 20.8491C7.66242 20.2775 7.46275 19.839 7.06342 19.5337C6.67192 19.2283 6.10815 19.0756 5.37213 19.0756H2.77646L3.09358 18.7702L2.0835 23.8206Z" fill="white"/>
</svg>
