<svg width="140" height="96" viewBox="0 0 140 96" fill="none" xmlns="http://www.w3.org/2000/svg">
<path d="M1.1075 43.4705C0.248649 42.8345 0.311326 41.5301 1.22719 40.9794L3.61886 39.5413L3.3612 39.1128L8.14452 36.2368L8.40218 36.6653L13.1855 33.7892L12.9278 33.3607L17.7112 30.4846L17.9688 30.9132L22.7522 28.0371L22.4945 27.6086L27.2778 24.7325L27.5355 25.161L32.3188 22.285L32.0612 21.8564L36.8445 18.9804L37.1021 19.4089L41.8855 16.5328L41.6278 16.1043L46.4111 13.2283L46.6688 13.6568L51.4521 10.7807L51.1945 10.3522L55.9778 7.47614L56.2355 7.90466L61.0188 5.0286L60.7611 4.60008L65.5444 1.72401L65.8021 2.15254L68.1938 0.714513C68.7182 0.399205 69.3815 0.434021 69.8701 0.802493L72.3355 2.6621L72.6366 2.2629L77.5676 5.98212L77.2665 6.38132L82.1974 10.1005L82.4985 9.70134L87.4294 13.4206L87.1283 13.8198L92.0593 17.539L92.3604 17.1398L97.2913 20.859L96.9902 21.2582L101.921 24.9774L102.222 24.5782L107.153 28.2974L106.852 28.6966L111.783 32.4158L112.084 32.0166L117.015 35.7359L116.714 36.1351L121.645 39.8543L121.946 39.4551L126.877 43.1743L126.576 43.5735L131.507 47.2927L131.808 46.8935L136.739 50.6127L136.438 51.0119L138.903 52.8715C139.757 53.5157 139.682 54.8211 138.759 55.3627L135.969 57.0009L136.222 57.4321L130.642 60.7083L130.389 60.2771L124.809 63.5534L125.062 63.9846L119.482 67.2609L119.229 66.8297L113.648 70.106L113.901 70.5372L108.321 73.8135L108.068 73.3823L102.488 76.6585L102.741 77.0897L97.1607 80.366L96.9075 79.9348L91.3273 83.2111L91.5805 83.6423L86.0002 86.9186L85.747 86.4874L80.1668 89.7637L80.42 90.1949L74.8397 93.4711L74.5866 93.0399L71.7964 94.6781C71.2778 94.9825 70.6275 94.9479 70.1443 94.59L67.6787 92.7643L67.3811 93.1662L62.4499 89.5148L62.7475 89.1129L57.8163 85.4615L57.5187 85.8634L52.5875 82.212L52.8851 81.8101L47.9539 78.1588L47.6563 78.5606L42.7251 74.9092L43.0227 74.5074L38.0915 70.856L37.7939 71.2578L32.8627 67.6064L33.1603 67.2046L28.2291 63.5532L27.9315 63.955L23.0003 60.3036L23.2979 59.9018L18.3667 56.2504L18.0691 56.6522L13.1379 53.0008L13.4355 52.599L8.5043 48.9476L8.20674 49.3494L3.27555 45.6981L3.57311 45.2962L1.1075 43.4705Z" stroke="#32427E" stroke-dasharray="6 6"/>
<path d="M61.2526 40.7047L75.5295 51.4123" stroke="#32427E" stroke-linecap="round" stroke-linejoin="round"/>
<path d="M76.0424 41.4677L60.7396 50.6494" stroke="#32427E" stroke-linecap="round" stroke-linejoin="round"/>
</svg>
