<svg width="83" height="56" viewBox="0 0 83 56" fill="none" xmlns="http://www.w3.org/2000/svg">
<g clip-path="url(#clip0_224_1459)">
<path d="M62.0948 23.4195C62.9601 23.5619 63.5152 24.0795 63.415 24.6122C63.2397 25.19 62.4193 25.5876 61.624 25.4978L55.8469 24.7108L56.3759 28.5521C56.4907 29.1448 55.7403 29.5951 54.865 29.6477C53.9896 29.7003 53.2845 29.2728 53.1696 28.6801L52.5307 24.1485L45.8882 23.2191C45.0229 23.0766 44.4729 22.4616 44.5731 21.9288C44.7483 21.3511 45.6388 21.0058 46.4341 21.0958L52.1362 21.9278L51.7521 18.0939C51.6373 17.5012 52.2427 17.0435 53.1931 16.9458C54.0685 16.8932 54.7686 17.4183 54.8835 18.011L55.5274 22.445L62.0948 23.4195ZM48.0167 31.2992C46.0655 32.4699 43.0893 32.3653 41.269 31C39.5187 29.6873 39.6243 27.639 41.5755 26.4683C43.5266 25.2976 46.5729 25.4548 48.3231 26.7675C50.0685 28.1778 49.8927 30.1736 48.0167 31.2992ZM37.6605 37.5129C35.7094 38.6836 32.7332 38.579 30.9129 37.2137C29.1626 35.901 29.2682 33.8527 31.2193 32.682C33.1705 31.5113 36.2167 31.6685 37.967 32.9812C39.7873 34.3465 39.6117 36.3422 37.6605 37.5129ZM39.4751 24.8931C37.2989 26.1988 36.4678 28.2097 37.1726 30.0553C34.5167 29.3804 31.4454 29.7109 29.194 31.0617C27.8432 31.8722 27.0626 32.9077 26.7172 33.9656L22.2364 30.605C21.6762 30.1849 20.6607 30.1326 20.0604 30.4928C19.3851 30.898 19.3498 31.5807 19.91 32.0008L28.7315 38.617C31.7471 40.7774 36.609 40.9793 39.7609 39.0881C42.0122 37.7374 42.7732 35.674 42.0684 33.8284C44.7243 34.5034 47.8657 34.2253 50.042 32.9195C53.2689 30.9833 53.515 27.6221 50.5044 25.3642C47.7089 23.1663 42.7019 22.9569 39.475 24.893L39.4751 24.8931Z" fill="white"/>
</g>
<defs>
<clipPath id="clip0_224_1459">
<rect width="50" height="50" fill="white" transform="matrix(0.858789 -0.515273 0.801209 0.600907 0 25.7637)"/>
</clipPath>
</defs>
</svg>
