<svg width="183" height="53" viewBox="0 0 183 53" fill="none" xmlns="http://www.w3.org/2000/svg">
<path d="M169.526 28.7497C168.758 28.7497 167.99 28.6217 167.222 28.3656C166.453 28.1095 165.813 27.7549 165.301 27.3019L166.778 24.5835C167.153 24.9184 167.576 25.1843 168.049 25.3813C168.522 25.5783 169.004 25.6768 169.497 25.6768C170.167 25.6768 170.708 25.5093 171.122 25.1745C171.536 24.8396 171.92 24.2782 172.274 23.4903L173.19 21.422L173.486 20.9787L179.454 7.03239H183L175.613 24.0812C175.121 25.2631 174.569 26.1988 173.958 26.8882C173.368 27.5777 172.698 28.0603 171.949 28.336C171.22 28.6118 170.413 28.7497 169.526 28.7497ZM172.777 23.3721L165.656 7.03239H169.497L175.288 20.6537L172.777 23.3721Z" fill="white"/>
<path d="M161.931 23.0175C160.197 23.0175 158.858 22.5743 157.912 21.6878C156.967 20.7817 156.494 19.4521 156.494 17.6989V3.54576H160.188V17.6103C160.188 18.3588 160.375 18.9399 160.749 19.3536C161.143 19.7673 161.685 19.9741 162.374 19.9741C163.201 19.9741 163.891 19.7574 164.442 19.324L165.477 21.9538C165.043 22.3083 164.511 22.5743 163.881 22.7515C163.251 22.9288 162.601 23.0175 161.931 23.0175ZM153.894 10.1053V7.15054H164.413V10.1053H153.894Z" fill="white"/>
<path d="M147.451 22.8106V7.03227H151.145V22.8106H147.451ZM149.313 4.4321C148.623 4.4321 148.052 4.21542 147.599 3.78206C147.166 3.3487 146.949 2.8267 146.949 2.21605C146.949 1.58571 147.166 1.0637 147.599 0.650041C148.052 0.21668 148.623 0 149.313 0C150.002 0 150.564 0.206831 150.997 0.620494C151.45 1.01446 151.676 1.51676 151.676 2.12741C151.676 2.77745 151.46 3.329 151.026 3.78206C150.593 4.21542 150.022 4.4321 149.313 4.4321Z" fill="white"/>
<path d="M136.177 6.855C137.437 6.855 138.56 7.10123 139.545 7.59368C140.55 8.08614 141.337 8.84452 141.909 9.86883C142.48 10.8734 142.766 12.1735 142.766 13.7691V22.8106H139.072V14.2418C139.072 12.8433 138.737 11.7993 138.068 11.1098C137.418 10.4204 136.502 10.0757 135.32 10.0757C134.453 10.0757 133.685 10.2529 133.015 10.6075C132.345 10.9621 131.823 11.4939 131.449 12.2031C131.094 12.8925 130.917 13.7691 130.917 14.8328V22.8106H127.224V7.03228H130.74V11.2871L130.119 9.98702C130.671 8.98241 131.469 8.21418 132.513 7.68232C133.576 7.13077 134.798 6.855 136.177 6.855Z" fill="white"/>
<path d="M118.997 22.8106V19.6195L118.79 18.9399V13.3554C118.79 12.272 118.465 11.4348 117.815 10.8439C117.165 10.2332 116.18 9.92792 114.861 9.92792C113.974 9.92792 113.098 10.0658 112.231 10.3416C111.384 10.6174 110.665 11.0015 110.074 11.4939L108.626 8.80512C109.473 8.15508 110.478 7.67247 111.64 7.3573C112.822 7.02243 114.043 6.855 115.304 6.855C117.589 6.855 119.352 7.40655 120.593 8.50965C121.853 9.59305 122.484 11.2773 122.484 13.5623V22.8106H118.997ZM114.033 23.0174C112.851 23.0174 111.817 22.8204 110.931 22.4265C110.044 22.0128 109.355 21.4514 108.862 20.7423C108.39 20.0134 108.153 19.1959 108.153 18.2898C108.153 17.4034 108.36 16.6056 108.774 15.8965C109.207 15.1874 109.906 14.626 110.872 14.2123C111.837 13.7986 113.117 13.5918 114.713 13.5918H119.293V16.0442H114.979C113.718 16.0442 112.871 16.2511 112.438 16.6647C112.004 17.0587 111.788 17.5511 111.788 18.1421C111.788 18.8118 112.054 19.3437 112.585 19.7376C113.117 20.1316 113.856 20.3286 114.801 20.3286C115.708 20.3286 116.515 20.1218 117.224 19.7081C117.953 19.2944 118.475 18.6838 118.79 17.8762L119.411 20.0922C119.056 21.018 118.416 21.737 117.49 22.2492C116.584 22.7613 115.432 23.0174 114.033 23.0174Z" fill="white"/>
<path d="M98.0854 6.855C99.346 6.855 100.459 7.10123 101.424 7.59368C102.409 8.08614 103.177 8.84452 103.729 9.86883C104.28 10.8734 104.556 12.1735 104.556 13.7691V22.8106H100.863V14.2418C100.863 12.8433 100.557 11.7993 99.9468 11.1098C99.3362 10.4204 98.4596 10.0757 97.3171 10.0757C96.5095 10.0757 95.7905 10.2529 95.1602 10.6075C94.5495 10.9621 94.0669 11.4841 93.7123 12.1735C93.3775 12.863 93.21 13.7395 93.21 14.8032V22.8106H89.5166V14.2418C89.5166 12.8433 89.2113 11.7993 88.6007 11.1098C87.99 10.4204 87.1134 10.0757 85.9709 10.0757C85.1633 10.0757 84.4443 10.2529 83.814 10.6075C83.2033 10.9621 82.7207 11.4841 82.3662 12.1735C82.0313 12.863 81.8639 13.7395 81.8639 14.8032V22.8106H78.1704V7.03228H81.6866V11.228L81.0661 9.98702C81.5979 8.96271 82.3662 8.18463 83.3708 7.65278C84.3951 7.12093 85.5573 6.855 86.8574 6.855C88.3347 6.855 89.6151 7.21942 90.6985 7.94825C91.8016 8.67709 92.5305 9.78019 92.885 11.2576L91.4372 10.7552C91.9494 9.57336 92.7964 8.62784 93.9783 7.9187C95.1602 7.20957 96.5292 6.855 98.0854 6.855Z" fill="white"/>
<path d="M64.7363 23.0175C63.3968 23.0175 62.215 22.7713 61.1906 22.2788C60.1663 21.7667 59.3686 20.9984 58.7973 19.9741C58.2261 18.9301 57.9404 17.6202 57.9404 16.0443V7.03239H61.6339V15.542C61.6339 16.9603 61.949 18.024 62.5794 18.7331C63.2294 19.4226 64.1454 19.7673 65.3273 19.7673C66.194 19.7673 66.9425 19.59 67.5729 19.2355C68.2229 18.8809 68.7252 18.349 69.0798 17.6399C69.4541 16.9308 69.6412 16.0542 69.6412 15.0102V7.03239H73.3346V22.8107H69.8185V18.5559L70.439 19.8559C69.9071 20.8803 69.129 21.6682 68.1047 22.2197C67.0804 22.7516 65.9576 23.0175 64.7363 23.0175Z" fill="white"/>
<path d="M49.03 2.12736H52.8712V22.8105H49.03V2.12736ZM38.3339 22.8105H34.4927V2.12736H38.3339V22.8105ZM49.3255 13.9463H38.0088V10.6665H49.3255V13.9463Z" fill="white"/>
<path d="M25.057 22.8105V2.12736H28.8981V22.8105H25.057Z" fill="white"/>
<path d="M0 22.8105L9.30742 2.12736H13.0895L22.4264 22.8105H18.408L10.4007 4.16613H11.9371L3.95935 22.8105H0ZM4.28437 18.0238L5.31852 15.01H16.4874L17.5216 18.0238H4.28437Z" fill="white"/>
<path d="M90.455 52.6501L93.8754 35.5015H95.031L91.6105 52.6501H90.455Z" fill="white"/>
<path d="M81.2773 52.7425C80.1988 52.7425 79.259 52.5422 78.4578 52.1416C77.6566 51.7256 77.0326 51.1401 76.5857 50.3851C76.1543 49.6302 75.9386 48.7442 75.9386 47.7273C75.9386 46.3406 76.2314 45.108 76.8169 44.0295C77.4178 42.9356 78.2344 42.0728 79.2667 41.441C80.3144 40.8093 81.5085 40.4935 82.8489 40.4935C83.9428 40.4935 84.8827 40.7015 85.6685 41.1175C86.4697 41.5181 87.086 42.0959 87.5174 42.8508C87.9642 43.5904 88.1876 44.4763 88.1876 45.5086C88.1876 46.8953 87.8872 48.1356 87.2863 49.2296C86.7008 50.3081 85.8842 51.1632 84.8365 51.7949C83.8042 52.4266 82.6178 52.7425 81.2773 52.7425ZM81.3698 51.7025C82.4637 51.7025 83.4344 51.4405 84.2818 50.9167C85.1292 50.3928 85.7994 49.6687 86.2925 48.7442C86.7855 47.8044 87.0321 46.7489 87.0321 45.578C87.0321 44.2837 86.6546 43.29 85.8996 42.5966C85.16 41.8879 84.1123 41.5335 82.7565 41.5335C81.6779 41.5335 80.7073 41.8031 79.8444 42.3424C78.997 42.8662 78.3268 43.5904 77.8338 44.5148C77.3407 45.4393 77.0942 46.487 77.0942 47.658C77.0942 48.9368 77.464 49.9306 78.2035 50.6393C78.9585 51.3481 80.0139 51.7025 81.3698 51.7025Z" fill="white"/>
<path d="M68.753 52.7425C67.6436 52.7425 66.6807 52.5422 65.8641 52.1416C65.0475 51.7256 64.4158 51.1401 63.9689 50.3851C63.5375 49.6302 63.3218 48.7442 63.3218 47.7273C63.3218 46.3252 63.6146 45.0849 64.2 44.0064C64.8009 42.9125 65.6252 42.0573 66.673 41.441C67.7207 40.8093 68.9148 40.4935 70.2552 40.4935C71.3337 40.4935 72.2582 40.6861 73.0286 41.0713C73.8143 41.441 74.4152 42.0034 74.8312 42.7584L73.8837 43.3362C73.5139 42.7199 73.0209 42.2653 72.4046 41.9726C71.7883 41.6799 71.0487 41.5335 70.1859 41.5335C69.0765 41.5335 68.0904 41.8031 67.2276 42.3424C66.3802 42.8662 65.71 43.5904 65.2169 44.5148C64.7239 45.4393 64.4774 46.487 64.4774 47.658C64.4774 48.9368 64.8549 49.9306 65.6098 50.6393C66.3648 51.3481 67.4433 51.7025 68.8454 51.7025C69.6466 51.7025 70.3939 51.5561 71.0872 51.2634C71.796 50.9552 72.3814 50.5161 72.8437 49.946L73.6526 50.5931C73.1287 51.2711 72.4277 51.8026 71.5494 52.1878C70.6866 52.5576 69.7545 52.7425 68.753 52.7425Z" fill="white"/>
<path d="M54.3292 52.7425C53.2506 52.7425 52.3108 52.5422 51.5096 52.1416C50.7084 51.7256 50.0844 51.1401 49.6376 50.3851C49.2062 49.6302 48.9905 48.7442 48.9905 47.7273C48.9905 46.3406 49.2832 45.108 49.8687 44.0295C50.4696 42.9356 51.2862 42.0728 52.3185 41.441C53.3662 40.8093 54.5603 40.4935 55.9007 40.4935C56.9947 40.4935 57.9345 40.7015 58.7203 41.1175C59.5215 41.5181 60.1378 42.0959 60.5692 42.8508C61.016 43.5904 61.2394 44.4763 61.2394 45.5086C61.2394 46.8953 60.939 48.1356 60.3381 49.2296C59.7526 50.3081 58.936 51.1632 57.8883 51.7949C56.856 52.4266 55.6696 52.7425 54.3292 52.7425ZM54.4216 51.7025C55.5155 51.7025 56.4862 51.4405 57.3336 50.9167C58.1811 50.3928 58.8513 49.6687 59.3443 48.7442C59.8374 47.8044 60.0839 46.7489 60.0839 45.578C60.0839 44.2837 59.7064 43.29 58.9514 42.5966C58.2119 41.8879 57.1642 41.5335 55.8083 41.5335C54.7298 41.5335 53.7591 41.8031 52.8963 42.3424C52.0489 42.8662 51.3786 43.5904 50.8856 44.5148C50.3925 45.4393 50.146 46.487 50.146 47.658C50.146 48.9368 50.5158 49.9306 51.2554 50.6393C52.0103 51.3481 53.0657 51.7025 54.4216 51.7025Z" fill="white"/>
<path d="M43.9778 52.7426C43.3153 52.7426 42.7529 52.6039 42.2907 52.3266C41.8438 52.0492 41.5357 51.6487 41.3662 51.1248C41.1967 50.6009 41.1813 49.9769 41.32 49.2528L43.5849 37.9514H44.7405L42.4987 49.1603C42.3292 50.0078 42.3831 50.6549 42.6604 51.1017C42.9532 51.5331 43.4847 51.7488 44.2551 51.7488C44.6249 51.7488 44.9716 51.6949 45.2951 51.587C45.6341 51.4638 45.9422 51.2943 46.2196 51.0786L46.5663 51.9337C46.1965 52.2264 45.7805 52.4344 45.3182 52.5577C44.8714 52.681 44.4246 52.7426 43.9778 52.7426ZM40.6266 41.5798L40.8115 40.586H48.0454L47.8605 41.5798H40.6266Z" fill="white"/>
<path d="M31.2176 52.7425C30.1391 52.7425 29.1993 52.5422 28.3981 52.1416C27.5969 51.7256 26.9729 51.1401 26.526 50.3851C26.0946 49.6302 25.8789 48.7442 25.8789 47.7273C25.8789 46.3406 26.1717 45.108 26.7572 44.0295C27.3581 42.9356 28.1747 42.0728 29.207 41.441C30.2547 40.8093 31.4488 40.4935 32.7892 40.4935C33.8831 40.4935 34.823 40.7015 35.6088 41.1175C36.41 41.5181 37.0263 42.0959 37.4577 42.8508C37.9045 43.5904 38.1279 44.4763 38.1279 45.5086C38.1279 46.8953 37.8275 48.1356 37.2266 49.2296C36.6411 50.3081 35.8245 51.1632 34.7768 51.7949C33.7445 52.4266 32.5581 52.7425 31.2176 52.7425ZM31.3101 51.7025C32.404 51.7025 33.3747 51.4405 34.2221 50.9167C35.0695 50.3928 35.7398 49.6687 36.2328 48.7442C36.7258 47.8044 36.9724 46.7489 36.9724 45.578C36.9724 44.2837 36.5949 43.29 35.8399 42.5966C35.1003 41.8879 34.0526 41.5335 32.6968 41.5335C31.6182 41.5335 30.6476 41.8031 29.7847 42.3424C28.9373 42.8662 28.2671 43.5904 27.7741 44.5148C27.281 45.4393 27.0345 46.487 27.0345 47.658C27.0345 48.9368 27.4043 49.9306 28.1438 50.6393C28.8988 51.3481 29.9542 51.7025 31.3101 51.7025Z" fill="white"/>
<path d="M17.2847 52.65L19.6883 40.5859H20.8207L20.0812 44.2144L19.9425 43.7984C20.4664 42.7045 21.1751 41.8802 22.0688 41.3255C22.9624 40.7708 24.0871 40.4935 25.443 40.4935L25.235 41.6259C25.1734 41.6259 25.1117 41.6259 25.0501 41.6259C24.9885 41.6105 24.9268 41.6028 24.8652 41.6028C23.5094 41.6028 22.3846 42.0111 21.491 42.8277C20.6127 43.6289 20.0118 44.8384 19.6883 46.4562L18.4403 52.65H17.2847Z" fill="white"/>
<path d="M1.76561 52.65L5.00119 36.4721H10.6404C12.4276 36.4721 13.8143 36.865 14.8004 37.6508C15.7865 38.4212 16.2795 39.5151 16.2795 40.9326C16.2795 42.3193 15.9791 43.4902 15.3782 44.4455C14.7773 45.4008 13.9145 46.1249 12.7897 46.618C11.6804 47.111 10.363 47.3575 8.83767 47.3575H3.47585L4.12296 46.8029L2.94429 52.65H1.76561ZM4.09985 46.8722L3.68385 46.2944H8.83767C10.8252 46.2944 12.3583 45.8553 13.4368 44.9771C14.5308 44.0834 15.0777 42.7661 15.0777 41.025C15.0777 39.9003 14.6848 39.0375 13.899 38.4366C13.1287 37.8357 12.0193 37.5352 10.571 37.5352H5.46342L6.08742 36.9343L4.09985 46.8722Z" fill="white"/>
</svg>
