<svg width="83" height="56" viewBox="0 0 83 56" fill="none" xmlns="http://www.w3.org/2000/svg">
<path d="M60.6704 31.8641C60.5314 33.7218 58.7373 34.5181 56.5873 34.9676C54.3346 35.4602 52.8241 36.3291 51.7828 37.8504C50.5052 39.7749 49.1292 40.2643 46.7611 40.2097C32.5659 39.3325 23.0364 30.744 30.8641 25.5244C32.9628 24.3959 35.2836 24.2548 36.5381 23.6142C37.9559 22.3153 38.6769 20.5939 40.6699 19.5663C43.075 18.3473 45.5955 17.9556 48.2018 18.4089C46.1623 23.1251 52.9456 26.7312 58.7776 25.3798C60.0075 27.4433 60.9715 29.6477 60.6694 31.8834L60.6704 31.8641ZM35.2 22.8108C31.8925 20.6305 32.031 17.1109 34.8663 15.0735C38.8657 17.4925 37.6219 21.8246 35.2 22.8108Z" fill="white"/>
</svg>
