<svg width="308" height="288" viewBox="0 0 308 288" fill="none" xmlns="http://www.w3.org/2000/svg">
<path d="M308 154.5C308 127.499 300.901 100.973 287.415 77.5819C273.929 54.1904 254.53 34.7557 231.164 21.2267C207.797 7.69775 181.284 0.549994 154.284 0.500261C127.283 0.450528 100.744 7.50056 77.3278 20.9434C53.9115 34.3862 34.4411 53.7493 20.8691 77.0909C7.29708 100.433 0.10051 126.932 0.00104494 153.933C-0.0984206 180.933 6.90272 207.485 20.3024 230.926C33.7021 254.367 53.0293 273.873 76.3459 287.488L106.592 235.689C92.3578 227.377 80.5586 215.468 72.3781 201.158C64.1977 186.847 59.9235 170.637 59.9843 154.154C60.045 137.67 64.4385 121.492 72.7241 107.242C81.0098 92.9921 92.8964 81.171 107.192 72.9642C121.487 64.7574 137.689 60.4534 154.173 60.4838C170.657 60.5141 186.843 64.8778 201.108 73.1372C215.373 81.3966 227.216 93.2614 235.449 107.542C243.683 121.822 248.016 138.016 248.016 154.5H308Z" fill="#8CC0DE"/>
</svg>
